# xmcd
#
# Track frame offsets:
#	150
#	11842
#	26420
#	41882
#	62097
#	76637
#	95192
#	107400
#	122572
#	144200
#	157837
#	182265
#	199937
#	222532
#	236890
#	253250
#	273807
#	295155
#
# Disc length: 4108 seconds
# Revision: 0
# Processed by: cddbd v1.5.2PL0 Copyright (c) Steve Scherf et al.
# Submitted via: dBpowerAMP V12.0
#
DISCID=f9100a12
DTITLE=Otis Spann - Down to Earth: The Bluesway Recordings
DYEAR=1900
DGENRE=Blues
TTITLE0=Popcorn Man
TTITLE1=Brand New House
TTITLE2=Chicago Blues
TTITLE3=Steel Mill Blues
TTITLE4=Down on Sarah Street
TTITLE5=T'Ain't Nobody's Bizness If I Do
TTITLE6=Nobody Knows Chicago Like I Do (Party Blues)
TTITLE7=My Home Is in the Delta
TTITLE8=Spann Blues
TTITLE9=Heart Loaded With Trouble
TTITLE10=Diving Duck
TTITLE11=Shimmy Baby
TTITLE12=Look Like Twins
TTITLE13=I'm a Fool
TTITLE14=My Man
TTITLE15=Down to Earth
TTITLE16=Nobody Knows
TTITLE17=Doctor Blues
EXTD=
EXTT0=
EXTT1=
EXTT2=
EXTT3=
EXTT4=
EXTT5=
EXTT6=
EXTT7=
EXTT8=
EXTT9=
EXTT10=
EXTT11=
EXTT12=
EXTT13=
EXTT14=
EXTT15=
EXTT16=
EXTT17=
PLAYORDER=
